<?xml version="1.0" encoding="utf-8"?>
<!-- Generator: Adobe Illustrator 15.1.0, SVG Export Plug-In . SVG Version: 6.00 Build 0)  -->
<!DOCTYPE svg PUBLIC "-//W3C//DTD SVG 1.1//EN" "http://www.w3.org/Graphics/SVG/1.1/DTD/svg11.dtd">
<svg version="1.1" id="Layer_1" xmlns="http://www.w3.org/2000/svg" xmlns:xlink="http://www.w3.org/1999/xlink" x="0px" y="0px"
	 width="17.167px" height="16px" viewBox="0 0 17.167 16" enable-background="new 0 0 17.167 16" xml:space="preserve">
<g>
	<path fill="#333C98" d="M8.595,5.639c-1.331,0-2.41,1.045-2.41,2.336c0,1.289,1.079,2.336,2.41,2.336s2.41-1.047,2.41-2.336
		C11.005,6.684,9.926,5.639,8.595,5.639 M13.227,7.076h-1.056c0.101,0.326,0.155,0.672,0.155,1.029c0,1.996-1.671,3.613-3.731,3.613
		s-3.73-1.617-3.73-3.613c0-0.357,0.054-0.703,0.154-1.029H3.917v5.068c0,0.264,0.215,0.477,0.477,0.477h8.357
		c0.262,0,0.476-0.213,0.476-0.477V7.076z M11.326,3.333c-0.298,0-0.541,0.243-0.541,0.54v1.293c0,0.297,0.243,0.541,0.541,0.541
		h1.356c0.297,0,0.54-0.244,0.54-0.541V3.873c0-0.297-0.243-0.54-0.54-0.54H11.326z M4.124,2h8.92c0.847,0,1.54,0.693,1.54,1.539
		v8.922c0,0.846-0.693,1.539-1.54,1.539h-8.92c-0.847,0-1.541-0.693-1.541-1.539V3.539C2.583,2.693,3.277,2,4.124,2"/>
</g>
</svg>
