<?xml version="1.0" encoding="utf-8"?>
<!-- Generator: Adobe Illustrator 15.1.0, SVG Export Plug-In . SVG Version: 6.00 Build 0)  -->
<!DOCTYPE svg PUBLIC "-//W3C//DTD SVG 1.1//EN" "http://www.w3.org/Graphics/SVG/1.1/DTD/svg11.dtd">
<svg version="1.1" id="Layer_1" xmlns="http://www.w3.org/2000/svg" xmlns:xlink="http://www.w3.org/1999/xlink" x="0px" y="0px"
	 width="296px" height="90px" viewBox="0 0 296 90" enable-background="new 0 0 296 90" xml:space="preserve">
<g>
	<path fill="#2C30A2" d="M76.649,74.417L76.649,74.417l-0.001-65.1h-4.33v65.104c0.004,7.213,10.825,7.213,10.825,7.213v-0.722
		C76.649,80.913,76.649,74.417,76.649,74.417"/>
	<path fill="#2C30A2" d="M89.639,74.417c0,0,0,6.495-6.495,6.495v0.722c0,0,10.821,0,10.825-7.213V9.317h-4.33V74.417z"/>
	<polygon fill="#2C30A2" points="45.816,9.318 41.486,9.318 41.486,80.768 41.486,81.491 45.816,81.491 60.251,81.491 
		60.251,80.768 45.816,80.768 	"/>
	<polygon fill="#2C30A2" points="281.031,9.318 276.701,9.318 268.384,9.318 268.384,10.04 276.701,10.04 276.701,81.491 
		281.031,81.491 281.031,10.04 290.035,10.04 290.035,9.318 	"/>
	<polygon fill="#2C30A2" points="109.991,9.318 109.991,10.04 109.991,63.085 109.991,63.807 109.991,80.768 109.991,81.491 
		114.321,81.491 128.756,81.491 128.756,80.768 114.321,80.768 114.321,63.807 123.487,63.807 123.487,63.085 114.321,63.085 
		114.321,10.04 128.756,10.04 128.756,9.318 114.321,9.318 	"/>
	<path fill="#2C30A2" d="M14.51,9.318h-3.609H6.57v0.721v53.046v0.722v16.961v0.723h4.331h3.609c0.004,0,10.821-0.002,10.825-7.213
		v-3.979c-0.002-4.557-4.32-6.234-7.501-6.853c3.181-0.618,7.498-2.296,7.501-6.852V16.527C25.327,9.317,14.51,9.318,14.51,9.318
		 M21.005,70.303v3.97c0,0,0,6.495-6.495,6.495h-3.609V63.807h3.617C21.005,63.813,21.005,70.303,21.005,70.303 M21.005,56.59
		L21.005,56.59c0,0,0,6.49-6.487,6.495h-3.617V10.04h3.609c6.495,0,6.495,6.495,6.495,6.495V56.59z"/>
	<path fill="#2C30A2" d="M188.934,27.361c3.182-0.618,7.498-2.296,7.502-6.853v-3.981c-0.01-7.208-10.822-7.209-10.826-7.209H182
		h-4.33v0.722V27v0.722v53.769H182V27.722h3.617c6.486,0.005,6.486,6.495,6.486,6.495h0.001V81.49h4.331V34.213
		C196.432,29.656,192.115,27.979,188.934,27.361 M182,27V10.04h3.609c6.494,0,6.494,6.495,6.494,6.495h0.001v3.969h-0.001
		c0,0,0,6.491-6.486,6.496H182z"/>
	<path fill="#2C30A2" d="M151.385,9.318h-3.609h-4.33v0.721v53.046v0.722v17.684h4.33V63.807h3.609
		c0.008,0,10.822-0.002,10.826-7.212V16.527C162.203,9.317,151.385,9.318,151.385,9.318 M157.881,56.59L157.881,56.59
		c0,0,0,6.495-6.496,6.495h-3.609V10.04h3.609c6.496,0,6.496,6.495,6.496,6.495V56.59z"/>
	<polygon fill="#2C30A2" points="251.086,52.625 251.086,55.137 251.086,70.772 238.096,27.468 238.096,11.833 238.096,9.321 
		238.096,9.317 238.094,9.317 237.34,9.317 233.766,9.317 233.766,81.491 238.096,81.491 238.096,29.98 251.086,73.285 
		251.086,81.491 255.416,81.491 255.416,69.572 255.416,67.06 255.416,9.317 251.086,9.317 	"/>
	<rect x="212.928" y="27" fill="#2C30A2" width="4.332" height="54.491"/>
	<path fill="#2C30A2" d="M215.094,9.318c-1.195,0-2.166,0.969-2.166,2.165s0.971,2.165,2.166,2.165s2.166-0.969,2.166-2.165
		S216.289,9.318,215.094,9.318"/>
</g>
</svg>
